<mxfile host="65bd71144e">
    <diagram id="HIP3nbAZw_EuaXWnEj3U" name="Page-1">
        <mxGraphModel dx="532" dy="490" grid="1" gridSize="10" guides="1" tooltips="1" connect="1" arrows="1" fold="1" page="1" pageScale="1" pageWidth="850" pageHeight="1100" math="0" shadow="0">
            <root>
                <mxCell id="0"/>
                <mxCell id="1" parent="0"/>
                <mxCell id="7" value="http://ics2o.mths.ca" style="swimlane;whiteSpace=wrap;html=1;" parent="1" vertex="1">
                    <mxGeometry x="40" y="40" width="760" height="480" as="geometry"/>
                </mxCell>
                <mxCell id="8" value="Enter the numbers that you want to divide.&amp;nbsp;" style="text;html=1;strokeColor=none;fillColor=none;align=center;verticalAlign=middle;whiteSpace=wrap;rounded=0;" vertex="1" parent="7">
                    <mxGeometry x="30" y="120" width="240" height="30" as="geometry"/>
                </mxCell>
                <mxCell id="9" value="First #" style="rounded=0;whiteSpace=wrap;html=1;" vertex="1" parent="7">
                    <mxGeometry x="30" y="160" width="120" height="20" as="geometry"/>
                </mxCell>
                <mxCell id="10" value="Second #" style="rounded=0;whiteSpace=wrap;html=1;" vertex="1" parent="7">
                    <mxGeometry x="30" y="190" width="120" height="20" as="geometry"/>
                </mxCell>
                <mxCell id="11" value="Divide" style="rounded=1;whiteSpace=wrap;html=1;" vertex="1" parent="7">
                    <mxGeometry x="30" y="230" width="120" height="40" as="geometry"/>
                </mxCell>
                <mxCell id="12" value="Answer" style="text;html=1;strokeColor=none;fillColor=none;align=center;verticalAlign=middle;whiteSpace=wrap;rounded=0;" vertex="1" parent="7">
                    <mxGeometry x="30" y="290" width="60" height="30" as="geometry"/>
                </mxCell>
            </root>
        </mxGraphModel>
    </diagram>
</mxfile>